<?xml version="1.0" standalone="no"?>
<!DOCTYPE svg PUBLIC "-//W3C//DTD SVG 20010904//EN"
 "http://www.w3.org/TR/2001/REC-SVG-20010904/DTD/svg10.dtd">
<svg version="1.0" xmlns="http://www.w3.org/2000/svg"
 width="460.000000pt" height="460.000000pt" viewBox="0 0 460.000000 460.000000"
 preserveAspectRatio="xMidYMid meet">
<metadata>
Created by potrace 1.11, written by Peter Selinger 2001-2013
</metadata>
<g transform="translate(0.000000,460.000000) scale(0.100000,-0.100000)"
fill="#000000" stroke="none">
<path d="M0 2300 l0 -2300 1083 2 c595 1 1064 3 1042 5 -233 19 -570 96 -605
138 -12 14 1 19 85 31 35 5 58 15 78 35 27 27 27 29 12 53 -9 13 -12 27 -7 30
5 3 12 19 15 35 3 16 14 36 23 46 13 12 13 16 3 13 -30 -6 -21 18 12 34 77 39
93 64 69 108 -7 13 -5 29 5 54 12 27 13 42 5 56 -7 14 -8 32 -1 55 8 29 6 36
-11 47 -13 9 -20 27 -23 56 -2 30 -11 52 -28 70 -13 15 -28 37 -32 50 -3 12
-10 22 -15 22 -13 0 -50 65 -50 88 0 18 6 20 73 19 79 -1 161 17 190 42 30 25
48 80 41 120 -8 42 -34 91 -49 91 -5 1 -18 11 -27 23 -10 12 -26 33 -36 46
-12 16 -30 24 -56 26 -20 2 -54 12 -74 23 -21 11 -56 22 -77 26 -138 21 -206
23 -251 6 -14 -6 -46 -10 -72 -10 -49 0 -106 -27 -130 -61 -7 -11 -20 -19 -27
-19 -8 0 -21 -13 -30 -29 -8 -17 -30 -42 -49 -56 -32 -25 -41 -44 -50 -117 -2
-14 -7 -31 -11 -37 -3 -6 -1 -11 4 -11 6 0 11 -7 11 -15 0 -8 5 -15 10 -15 6
0 10 -8 10 -17 -1 -14 -5 -12 -21 10 -22 29 -55 35 -92 16 -16 -9 -22 -9 -25
0 -8 25 -34 39 -84 46 -74 10 -84 17 -58 40 11 10 20 24 20 31 0 16 -61 54
-88 54 -19 0 -21 4 -15 33 3 17 9 39 13 47 4 8 15 49 25 90 10 41 31 103 47
137 15 34 28 64 28 67 0 3 16 26 35 52 19 25 35 51 35 59 0 7 7 19 16 26 9 8
27 30 41 49 43 64 72 102 115 152 24 27 52 66 63 87 11 21 34 53 50 72 66 73
416 400 458 428 14 9 50 37 80 64 30 26 58 47 63 47 5 0 26 14 47 31 34 28 38
29 53 15 20 -20 34 -20 34 -1 0 8 5 15 10 15 6 0 10 -4 10 -10 0 -5 18 -10 40
-10 22 0 40 4 40 9 0 5 36 9 80 9 44 1 80 -3 80 -9 0 -14 68 -11 73 4 3 6 6
-1 7 -18 1 -16 4 -24 7 -17 2 6 21 12 40 12 23 0 41 7 49 17 11 16 13 16 19
-10 7 -27 35 -39 35 -14 0 9 2 9 8 0 5 -8 53 -12 161 -12 85 0 157 -4 160 -9
8 -11 94 -33 101 -25 3 3 -1 8 -7 10 -40 14 5 20 147 21 88 1 160 -2 160 -7 0
-27 633 -46 642 -19 3 9 12 8 31 -5 35 -22 149 -24 167 -2 16 19 69 20 76 1 3
-8 18 -14 34 -14 27 1 28 1 10 21 -10 10 -16 25 -13 32 2 8 0 23 -6 34 -9 16
-18 19 -46 14 -19 -3 -35 -2 -36 3 0 5 -2 16 -4 24 -17 63 -1 74 48 31 19 -17
40 -31 46 -31 7 0 22 -6 34 -14 35 -22 84 -27 97 -11 6 8 9 19 5 26 -9 13 21
6 73 -17 35 -16 40 -28 17 -42 -14 -7 -13 -11 4 -34 16 -20 29 -25 68 -26 l48
0 -24 19 c-13 11 -22 22 -19 24 10 10 78 -26 78 -40 0 -9 10 -15 26 -15 19 0
25 -4 21 -14 -4 -10 -1 -13 7 -10 26 10 53 -34 60 -99 24 -231 14 -535 -23
-680 -10 -40 -24 -99 -31 -132 -13 -68 -69 -230 -111 -323 -16 -34 -29 -68
-29 -75 0 -7 -4 -17 -9 -22 -6 -6 -27 -41 -49 -80 -88 -159 -121 -210 -205
-313 -108 -133 -107 -132 -183 -133 -38 -1 -80 -4 -94 -8 -21 -7 -16 -9 30
-17 30 -4 63 -8 73 -6 21 2 22 -6 1 -29 -12 -14 -26 -16 -75 -12 -66 6 -82
-10 -29 -28 32 -12 38 -30 16 -48 -11 -10 -19 -8 -35 6 -12 9 -21 23 -21 29 0
14 -44 27 -48 15 -1 -4 -9 -17 -16 -27 -15 -20 -26 -21 -301 -15 -266 5 -380
12 -362 22 13 8 121 11 271 8 21 0 32 8 23 17 -4 4 -59 8 -122 10 -64 2 -120
6 -124 8 -9 6 -247 -11 -273 -20 -11 -3 -17 -12 -14 -19 2 -7 -2 -16 -11 -19
-35 -14 -399 -5 -500 11 -87 15 -115 15 -186 5 -114 -17 -157 -16 -157 3 0 23
-39 18 -60 -7 -17 -22 -17 -23 4 -43 58 -53 114 -69 155 -44 14 9 37 8 100 -5
109 -22 191 -22 191 0 0 15 29 16 326 12 255 -3 327 -7 334 -18 5 -9 20 -11
46 -7 22 3 59 2 84 -3 32 -6 52 -4 70 5 18 9 39 10 80 4 30 -5 136 -10 234
-11 156 -1 181 1 191 16 14 19 49 22 43 4 -6 -17 -138 -111 -146 -104 -3 3 0
6 6 6 7 0 12 5 12 10 0 11 -59 14 -84 4 -9 -3 -14 -10 -11 -14 16 -26 -238
-43 -364 -25 -65 10 -52 18 59 35 47 7 93 19 103 25 16 11 4 14 -75 17 -51 2
-100 1 -108 -4 -11 -5 -6 -8 15 -9 17 -1 -4 -5 -45 -9 -79 -7 -156 -6 -625 11
-258 10 -545 5 -531 -8 7 -7 101 -13 291 -16 217 -5 351 -19 340 -38 -4 -5
-22 -9 -41 -9 -20 0 -44 -5 -54 -10 -14 -7 -41 -7 -87 0 -172 28 -310 19 -298
-20 5 -15 -3 -19 -51 -26 -71 -11 -85 -34 -21 -34 27 0 49 -6 57 -15 11 -13 6
-15 -36 -15 -58 0 -88 -14 -64 -30 13 -8 180 -12 180 -4 0 1 -6 9 -14 17 -13
12 17 15 217 20 128 4 288 10 357 13 118 6 126 5 149 -15 30 -26 105 -28 171
-5 34 12 70 14 155 10 60 -3 125 -5 143 -6 40 0 34 -16 -14 -36 -52 -22 -717
-32 -794 -12 -59 15 -329 17 -364 2 -16 -6 -10 -11 35 -27 68 -24 185 -31 266
-15 46 8 86 9 150 2 55 -7 121 -7 173 -2 59 6 95 6 115 -2 40 -15 16 -30 -49
-30 -39 0 -47 -3 -38 -12 7 -7 52 -14 112 -16 55 -3 100 -8 100 -11 0 -16 -99
-29 -174 -24 -61 5 -77 3 -71 -6 5 -9 25 -11 64 -7 36 3 49 1 36 -4 -11 -5
-90 -9 -175 -10 -136 -1 -152 -2 -131 -14 14 -8 30 -12 36 -10 6 3 22 0 36 -5
17 -8 -12 -10 -109 -8 -100 1 -132 -1 -132 -10 0 -7 8 -13 18 -13 14 0 15 -2
2 -10 -10 -6 363 -10 1063 -10 l1077 0 0 2300 0 2300 -2300 0 -2300 0 0 -2300z
m2227 1943 c-3 -10 -5 -4 -5 12 0 17 2 24 5 18 2 -7 2 -21 0 -30z m-16 -160
c-9 -15 -10 -13 -11 14 0 17 3 40 8 50 5 14 8 11 10 -14 2 -18 -1 -41 -7 -50z
m1169 7 c-20 -13 -50 -13 -50 0 0 6 15 10 33 10 24 0 28 -3 17 -10z m155 -20
c17 -7 15 -9 -12 -9 -18 -1 -33 4 -33 9 0 12 17 12 45 0z m70 0 c-3 -5 -12
-10 -18 -10 -7 0 -6 4 3 10 19 12 23 12 15 0z m-632 -60 c16 -26 24 -30 62
-30 34 0 47 -5 55 -20 6 -11 16 -20 23 -20 19 0 70 -57 63 -69 -16 -24 -90 -9
-124 26 -8 8 -27 17 -43 20 -15 3 -36 14 -45 24 -11 12 -25 17 -39 13 -13 -3
-30 2 -43 13 -20 16 -21 21 -10 45 11 23 20 28 48 28 29 0 39 -6 53 -30z
m-2173 -85 c0 -8 -2 -15 -4 -15 -2 0 -6 7 -10 15 -3 8 -1 15 4 15 6 0 10 -7
10 -15z m-41 -21 c-12 -15 -11 -16 11 -10 24 7 24 6 6 -8 -16 -13 -18 -20 -8
-41 6 -14 16 -25 22 -25 20 0 9 -31 -21 -58 -32 -28 -32 -28 -15 -61 12 -23
16 -44 11 -71 -6 -37 -5 -39 29 -55 37 -18 47 -41 21 -51 -23 -9 -19 -44 5
-44 22 0 47 -37 33 -51 -14 -14 -53 2 -53 22 0 11 -7 22 -15 25 -8 4 -15 14
-15 25 0 10 -10 24 -22 30 -13 7 -27 17 -31 23 -5 6 -7 -8 -5 -31 3 -40 2 -43
-22 -44 -14 -1 -47 -3 -74 -5 -44 -4 -53 -1 -80 24 -17 16 -39 32 -50 36 -12
4 -16 12 -12 22 5 14 4 15 -9 4 -8 -7 -15 -10 -15 -7 0 13 74 115 125 172 126
142 150 165 164 160 8 -3 12 -3 9 1 -4 4 -3 15 3 26 6 11 13 17 16 14 3 -3 0
-13 -8 -22z m1596 -36 c14 -6 25 -19 25 -27 0 -9 15 -25 33 -36 17 -10 50 -35
71 -56 39 -37 39 -39 22 -58 -17 -18 -17 -21 0 -53 9 -18 23 -37 30 -41 8 -4
21 -21 29 -37 12 -24 13 -38 4 -82 -12 -58 -24 -78 -45 -78 -11 0 -13 14 -8
68 6 58 4 71 -12 87 -19 18 -19 18 -22 -6 -2 -13 -9 -28 -16 -34 -7 -5 -18
-21 -25 -34 -21 -38 -29 -8 -24 84 5 100 -1 105 -82 70 -65 -29 -130 -32 -165
-8 -18 13 -42 16 -102 14 -75 -2 -158 12 -158 27 0 4 16 17 34 29 l34 22 58
-20 c36 -13 70 -18 89 -15 20 4 44 0 64 -10 28 -14 35 -14 43 -3 7 11 11 11
15 1 8 -21 173 11 173 34 0 20 -26 45 -64 59 -42 16 -45 16 -83 -3 -29 -15
-43 -18 -57 -10 -14 8 -26 7 -45 -5 -60 -35 -212 -30 -219 7 -3 15 1 18 22 14
23 -5 171 23 180 33 2 2 8 18 13 34 8 25 16 31 49 36 66 10 112 10 139 -3z
m1169 -28 c60 -6 118 -16 130 -22 11 -7 30 -11 41 -10 15 2 26 -7 38 -33 9
-20 17 -44 17 -54 0 -10 11 -26 25 -35 33 -22 37 -95 5 -103 -25 -7 -26 -20
-2 -27 9 -3 23 -24 30 -46 10 -35 10 -44 -4 -65 -9 -14 -21 -25 -27 -25 -5 0
-15 -7 -21 -16 -16 -21 -57 -10 -90 23 -14 14 -31 23 -38 21 -7 -3 -1 -12 17
-23 53 -33 74 -75 37 -75 -23 0 -42 -19 -42 -41 0 -23 -82 -32 -119 -13 -38
20 -60 17 -73 -10 -23 -52 -64 -33 -72 34 -3 24 -10 48 -16 54 -5 5 -10 20
-10 33 0 17 -7 23 -35 29 -28 5 -35 11 -35 30 0 18 7 25 28 30 15 4 33 11 40
17 12 9 17 -1 13 -30 -1 -7 9 -13 22 -13 28 0 47 34 40 72 -3 15 0 49 6 78 10
48 10 52 -14 74 -14 13 -39 29 -55 36 -25 10 -34 10 -56 -4 -21 -14 -24 -22
-19 -46 5 -22 2 -31 -12 -39 -35 -18 -43 -1 -32 69 6 36 14 69 20 75 5 5 9 17
9 26 0 37 30 52 89 46 31 -3 105 -11 165 -17z m436 -16 c22 -20 40 -41 40 -48
0 -14 -109 -20 -129 -7 -9 6 -11 16 -5 32 4 13 8 28 9 33 0 7 20 19 42 25 2 1
21 -15 43 -35z m-2685 -49 c11 -2 23 -4 28 -4 4 -1 7 -12 7 -26 0 -14 4 -25 9
-25 5 0 11 -19 14 -42 2 -24 7 -52 11 -63 4 -13 -1 -29 -14 -44 -19 -23 -21
-23 -54 -7 -19 9 -43 16 -55 16 -12 0 -21 6 -21 14 0 8 -11 23 -25 34 -40 32
-50 79 -30 148 3 9 77 9 130 -1z m2008 -200 c3 -8 0 -33 -8 -57 -7 -24 -13
-38 -14 -32 -1 7 -10 14 -22 17 -18 5 -20 10 -14 39 4 18 9 36 12 41 7 13 41
8 46 -8z m-1053 -75 c0 -5 -4 -10 -10 -10 -5 0 -10 5 -10 10 0 6 5 10 10 10 6
0 10 -4 10 -10z m-140 -17 c22 -7 21 -8 -15 -13 -22 -3 -53 -3 -70 -1 -30 5
-30 5 -5 12 34 10 60 10 90 2z m100 -3 c-8 -5 -19 -10 -25 -10 -5 0 -3 5 5 10
8 5 20 10 25 10 6 0 3 -5 -5 -10z m-204 -143 c-18 -42 -38 -82 -44 -90 -6 -7
-20 -33 -32 -57 -52 -111 -81 -145 -117 -138 -15 3 -15 4 0 19 16 17 53 79
108 184 17 33 40 71 50 84 11 13 19 31 19 39 0 9 8 24 17 34 32 36 32 1 -1
-75z m1219 -16 c5 -9 -31 -41 -47 -41 -10 0 -11 34 -1 43 10 10 41 8 48 -2z
m732 -33 c15 -7 39 -23 52 -35 13 -13 42 -28 65 -35 58 -16 67 -28 20 -28 -22
0 -44 4 -49 8 -12 10 -77 29 -127 37 -37 6 -57 32 -43 55 8 14 48 13 82 -2z
m-788 -64 c9 -26 10 -39 2 -47 -6 -6 -11 -19 -11 -29 0 -15 -9 -18 -54 -18
-33 0 -58 -5 -65 -14 -9 -11 -37 -13 -123 -10 -62 2 -117 -1 -123 -6 -6 -5
-29 -6 -51 -3 -30 4 -40 10 -41 24 -1 14 5 19 25 19 44 0 67 10 77 32 14 28
134 37 172 13 20 -13 38 -15 85 -10 55 7 58 8 44 24 -30 33 -19 61 24 61 21 0
29 -7 39 -36z m1243 -238 c24 -28 22 -36 -6 -36 -25 0 -70 45 -61 60 8 13 48
-2 67 -24z m-2785 -83 c11 -36 10 -39 -18 -63 -34 -30 -36 -40 -10 -40 10 0
22 -8 25 -17 6 -15 10 -13 31 12 28 35 32 50 9 41 -15 -6 -15 -4 -3 11 35 46
90 73 73 36 -4 -10 -8 -30 -9 -44 -1 -15 -11 -36 -23 -49 -11 -12 -23 -34 -27
-48 -7 -28 -61 -85 -130 -137 -22 -16 -87 -77 -145 -135 -58 -58 -123 -121
-145 -142 -22 -20 -69 -67 -105 -106 -36 -38 -91 -96 -122 -130 -32 -33 -58
-65 -58 -71 0 -5 -24 -38 -52 -73 -59 -70 -73 -91 -89 -128 -6 -14 -16 -32
-24 -40 -7 -8 -16 -26 -20 -40 -3 -14 -24 -61 -45 -105 -22 -44 -42 -92 -45
-107 -3 -14 -17 -40 -31 -58 -24 -28 -27 -40 -28 -115 -1 -61 -5 -85 -13 -85
-7 0 -13 -7 -13 -15 0 -8 4 -15 9 -15 11 0 20 -59 10 -65 -4 -3 -13 -27 -20
-55 -8 -32 -19 -52 -31 -56 -10 -3 -18 -10 -18 -16 0 -5 -7 -7 -16 -4 -22 9
-56 -3 -48 -16 7 -11 -13 -28 -33 -28 -7 0 -24 17 -38 38 -14 20 -36 54 -50
74 -95 142 -225 469 -260 653 -7 39 -21 111 -31 160 -13 68 -18 142 -18 300
-1 232 5 307 33 440 10 50 22 107 25 128 4 21 11 35 17 32 9 -6 12 4 10 40 0
16 2 15 9 -5 9 -22 15 -25 48 -22 20 2 59 -4 85 -12 42 -12 49 -12 54 0 6 17
137 20 156 4 65 -55 72 -59 79 -39 3 8 27 9 81 4 62 -6 77 -11 77 -24 0 -14
12 -16 86 -13 63 3 90 0 102 -11 26 -21 204 -27 415 -12 l117 8 0 -32 c0 -22
4 -31 13 -28 6 2 12 10 13 18 0 8 6 25 11 39 6 14 12 34 15 45 2 11 11 19 21
19 9 -1 17 2 17 8 0 5 17 24 37 43 40 37 39 58 -1 31 -34 -22 -44 -2 -14 29
31 34 41 31 55 -12z m-407 17 c0 -15 -27 -23 -47 -15 -17 7 -16 8 2 15 28 12
45 12 45 0z m457 -10 c2 -22 -12 -34 -28 -25 -7 5 -4 14 7 26 21 23 19 23 21
-1z m-377 -5 c0 -11 11 -15 40 -15 22 0 40 -4 40 -10 0 -5 -18 -10 -40 -10
-22 0 -40 4 -40 9 0 5 -11 12 -25 15 -14 4 -25 11 -25 16 0 6 11 10 25 10 16
0 25 -6 25 -15z m247 1 c-5 -16 -27 -19 -27 -3 0 7 7 14 15 14 9 0 14 -5 12
-11z m670 -32 c-3 -3 -12 -4 -19 -1 -8 3 -5 6 6 6 11 1 17 -2 13 -5z m70 0
c-3 -3 -12 -4 -19 -1 -8 3 -5 6 6 6 11 1 17 -2 13 -5z m-396 -51 c-8 -15 -10
-15 -11 -2 0 17 10 32 18 25 2 -3 -1 -13 -7 -23z m46 21 c-3 -3 -12 -4 -19 -1
-8 3 -5 6 6 6 11 1 17 -2 13 -5z m27 -52 c2 -4 -4 -13 -15 -20 -21 -13 -22
-12 -13 12 7 17 20 21 28 8z m-58 -39 c-6 -6 -36 9 -36 18 0 5 9 4 20 -3 10
-7 18 -14 16 -15z m147 10 c-7 -2 -19 -2 -25 0 -7 3 -2 5 12 5 14 0 19 -2 13
-5z m847 -14 c0 -18 -2 -20 -15 -9 -13 11 -13 15 -3 21 18 12 18 12 18 -12z
m-1232 -1407 c5 -15 -28 -48 -36 -36 -11 14 -33 16 -48 3 -24 -20 -37 1 -15
25 23 25 91 30 99 8z m56 -34 c-7 -17 -92 -88 -105 -88 -5 0 -9 6 -9 13 1 16
35 57 49 57 6 0 11 7 11 15 0 10 10 15 30 15 20 0 28 -4 24 -12z m-56 -154
c-2 -12 -13 -20 -28 -22 -22 -2 -23 -1 -7 8 9 6 15 15 12 21 -4 5 -3 14 1 20
9 16 27 -5 22 -27z m-918 -23 c33 -17 81 -50 106 -75 32 -32 54 -46 74 -46 23
0 29 -5 34 -32 8 -39 23 -58 47 -58 17 0 18 -3 7 -20 -7 -11 -18 -20 -24 -20
-6 0 -19 9 -29 20 -23 26 -67 26 -90 0 -25 -28 -95 -28 -95 -1 0 17 -5 19 -34
14 l-33 -5 -6 58 c-8 88 -28 144 -51 144 -18 0 -18 2 4 25 13 14 25 25 27 25
2 0 31 -13 63 -29z m900 -31 c0 -5 -5 -10 -11 -10 -5 0 -7 5 -4 10 3 6 8 10
11 10 2 0 4 -4 4 -10z m-391 -396 c-6 -8 -18 -14 -25 -14 -20 0 -17 28 4 33
25 5 35 -3 21 -19z m115 -30 c7 -18 0 -34 -15 -34 -5 0 -9 11 -9 25 0 28 15
34 24 9z m1523 -40 c-3 -3 -12 -4 -19 -1 -8 3 -5 6 6 6 11 1 17 -2 13 -5z
m-1633 -10 c9 -3 16 -12 16 -18 0 -39 55 -39 64 0 11 44 43 20 53 -39 4 -28 1
-39 -16 -53 -11 -10 -21 -26 -21 -35 0 -9 -18 -44 -40 -78 -22 -34 -40 -67
-40 -73 0 -7 -13 -8 -37 -4 -21 4 -47 9 -58 11 -67 12 -214 98 -214 125 0 8
15 35 33 60 28 39 42 48 101 68 38 12 74 27 79 32 11 11 56 13 80 4z m1670
-10 c26 -10 18 -24 -14 -24 -22 0 -28 4 -24 15 7 16 14 18 38 9z m-1 -180 c20
-4 37 -10 37 -14 0 -10 -44 -21 -100 -26 -64 -5 -127 23 -87 39 18 8 106 8
150 1z m204 -40 c-3 -3 -12 -4 -19 -1 -8 3 -5 6 6 6 11 1 17 -2 13 -5z m-687
-28 c0 -9 -39 -13 -51 -5 -10 6 -4 9 19 9 17 0 32 -2 32 -4z m1083 -3 c-7 -2
-19 -2 -25 0 -7 3 -2 5 12 5 14 0 19 -2 13 -5z m-1274 -13 c28 -16 -32 -23
-69 -8 l-33 14 43 1 c24 1 50 -2 59 -7z m798 -56 c-3 -3 -12 -4 -19 -1 -8 3
-5 6 6 6 11 1 17 -2 13 -5z m203 -80 c0 -29 -132 -46 -185 -24 -19 7 -18 8 5
14 59 14 180 20 180 10z m-493 -170 c-3 -3 -12 -4 -19 -1 -8 3 -5 6 6 6 11 1
17 -2 13 -5z m-219 -31 c-10 -2 -26 -2 -35 0 -10 3 -2 5 17 5 19 0 27 -2 18
-5z"/>
<path d="M2445 3580 c3 -5 10 -10 16 -10 5 0 9 5 9 10 0 6 -7 10 -16 10 -8 0
-12 -4 -9 -10z"/>
<path d="M3583 3669 c-38 -11 -52 -43 -29 -68 14 -15 15 -26 8 -59 -9 -38 -8
-43 16 -58 44 -29 112 -15 112 22 0 8 4 14 9 14 5 0 12 13 16 29 4 21 -1 39
-19 67 -46 71 -48 72 -113 53z"/>
<path d="M3458 3422 c-19 -31 -14 -46 19 -56 15 -5 28 -1 42 13 18 18 19 25 9
46 -15 34 -49 33 -70 -3z"/>
<path d="M1541 2758 c-12 -10 -21 -27 -21 -37 0 -9 -13 -32 -30 -51 -43 -49
-28 -49 19 -1 22 23 46 41 53 41 10 0 10 2 -1 9 -8 5 -11 16 -8 25 5 12 14 15
33 10 17 -5 25 -3 21 3 -13 20 -46 21 -66 1z"/>
<path d="M1505 2750 c3 -5 8 -10 11 -10 2 0 4 5 4 10 0 6 -5 10 -11 10 -5 0
-7 -4 -4 -10z"/>
<path d="M811 1924 c0 -11 3 -14 6 -6 3 7 2 16 -1 19 -3 4 -6 -2 -5 -13z"/>
<path d="M496 1144 c-22 -21 -4 -54 29 -54 28 0 43 33 25 55 -16 19 -35 19
-54 -1z"/>
<path d="M2000 2690 c0 -5 7 -10 16 -10 8 0 12 5 9 10 -3 6 -10 10 -16 10 -5
0 -9 -4 -9 -10z"/>
<path d="M1785 2639 c-4 -6 -13 -8 -21 -5 -8 3 -14 1 -14 -5 0 -7 10 -9 28 -4
33 8 53 25 30 25 -9 0 -20 -5 -23 -11z"/>
<path d="M4160 2620 c0 -24 6 -25 25 -6 15 15 10 26 -12 26 -7 0 -13 -9 -13
-20z"/>
<path d="M1978 833 c18 -2 45 -2 60 0 15 2 0 4 -33 4 -33 0 -45 -2 -27 -4z"/>
<path d="M1897 754 c-3 -4 -2 -15 4 -25 8 -16 13 -17 34 -7 19 8 31 8 50 0 33
-15 36 -15 29 2 -10 26 -98 49 -117 30z"/>
<path d="M2077 726 c-5 -13 2 -16 45 -16 59 0 56 17 -4 26 -27 5 -37 2 -41
-10z"/>
<path d="M2940 733 c-52 -9 -55 -15 -15 -27 27 -8 49 -9 68 -3 16 5 49 6 75 2
26 -4 85 -6 132 -4 47 2 115 3 153 3 37 -1 67 2 67 6 0 12 -118 22 -237 21
-60 -1 -133 0 -163 3 -30 2 -66 2 -80 -1z"/>
<path d="M2360 680 c-10 -7 6 -9 55 -9 64 1 66 2 30 10 -53 11 -67 11 -85 -1z"/>
<path d="M2790 665 c0 -8 5 -15 10 -15 6 0 10 7 10 15 0 8 -4 15 -10 15 -5 0
-10 -7 -10 -15z"/>
<path d="M2600 660 c0 -5 15 -10 33 -10 24 0 28 3 17 10 -20 13 -50 13 -50 0z"/>
<path d="M2865 529 c-4 -5 -31 -9 -61 -9 -30 0 -54 -4 -54 -10 0 -6 42 -10
108 -9 59 0 100 3 92 6 -8 3 -30 11 -47 19 -20 8 -35 9 -38 3z"/>
<path d="M3463 493 c15 -2 37 -2 50 0 12 2 0 4 -28 4 -27 0 -38 -2 -22 -4z"/>
<path d="M1995 430 c4 -6 11 -8 16 -5 14 9 11 15 -7 15 -8 0 -12 -5 -9 -10z"/>
<path d="M2408 93 c12 -2 30 -2 40 0 9 3 -1 5 -23 4 -22 0 -30 -2 -17 -4z"/>
</g>
</svg>
