<svg version="1" xmlns="http://www.w3.org/2000/svg" width="368" height="368" viewBox="0 0 276.000000 276.000000"><path d="M0 138v138h276V0H0v138zM118.4 22c3.5 15.1 3.9 17.3 2.2 12.5-1.4-3.9-1.4-4-1.6-1-.1 1.6-.8-1.1-1.5-6-.7-5-1.8-11.2-2.3-13.8-1.9-9.6.6-2.9 3.2 8.3zm45.1 1.5c-1.3 7.7-2.4 12.6-2.5 11-.1-2.6-.3-2.7-1-1-1.5 3.5-1.1.5.9-6.4 1.1-3.6 2.2-8.4 2.6-10.6.7-4.8 1.6-7.8 2-7.3.2.2-.7 6.6-2 14.3zM77.7 41.1c1.7 2.5 6.9 9.2 11.5 15 4.5 5.7 10.5 13.7 13.2 17.7 2.8 4 5.3 6.7 5.6 6.2.6-1 4 6.2 4 8.5 0 .4-3.7-4.5-8.1-11.1C96.5 66.6 86 52.8 82.2 49c-1.3-1.3-1.4-1.3-.9.2 1.2 3.4-.3 1.8-2.7-3-1.3-2.6-4.3-7.4-6.5-10.7-2.3-3.3-4.1-6.4-4.1-6.9 0-1 4.7 5.1 9.7 12.5zm128.8-2.2c-3.1 5-6.1 9-6.7 8.8-.6-.1-1.3.4-1.6 1.2-.3.9 0 1.1.8.6.7-.4.5.5-.4 2.4-.9 1.7-1.9 3.1-2.2 3.1-.2 0 0-.9.6-2.1.7-1.1 1-2.3.7-2.5-.5-.6-18.5 24-24.6 33.6-2.2 3.6-4.1 6-4.1 5.4 0-1.7 4.2-13.6 4.6-13.1.3.2 0 1.7-.6 3.2-1.6 4.3-.6 4 2.5-.7 4.3-6.5 17.2-24.3 24.5-33.8 3.7-4.7 7.7-10.2 8.9-12.3 1.3-2.1 2.5-3.6 2.8-3.4.2.3-2.1 4.6-5.2 9.6zm-47.8-.7c-.3.8-.6.5-.6-.6-.1-1.1.2-1.7.5-1.3.3.3.4 1.2.1 1.9zm-39 3.5c-.3 1-.5.2-.5-1.7s.2-2.7.5-1.8c.2 1 .2 2.6 0 3.5zm41 3c-.2 1.6-.4.5-.4-2.2 0-2.8.2-4 .4-2.8.2 1.3.2 3.5 0 5zM124.8 47c0 .8-.6-.1-1.3-2-.7-1.9-1.3-4.2-1.3-5 0-.8.6.1 1.3 2 .7 1.9 1.3 4.2 1.3 5zm32.9-4.8c-.3.8-.6.5-.6-.6-.1-1.1.2-1.7.5-1.3.3.3.4 1.2.1 1.9zm-35.9 10.3c0 2.5-.2 2.4-.9-1-1-5.1-1-9.2.1-5 .4 1.6.8 4.3.8 6zm34.6-4.1c-.3 2.1-.8 3.5-1.1 3.2-.2-.2-.1-2 .3-4 .3-2.1.8-3.5 1.1-3.2.2.2.1 2-.3 4zm-28.6 10.1c0 1.1-.6-.3-1.4-3-.7-2.8-1.3-5.5-1.3-6 .2-1.7 2.7 6.9 2.7 9zm31.9-4.8c-.3 1-.5.2-.5-1.7s.2-2.7.5-1.8c.2 1 .2 2.6 0 3.5zm-25.3 3.4c.4 3.6.4 3.8-.3 1.4-.6-2.1-.9 1.2-1 10.5-.1 7.4-.5 12.8-1 12-1.1-2-.1-31.8 1-29.8.4.8 1.1 3.5 1.3 5.9zm-43.9 7.4c3.7 6 9.2 14.5 12.1 18.7 2.9 4.3 5 7.8 4.6 7.8-.4 0-4-3-8-6.6-4-3.6-7.2-6.2-7.2-5.9 0 1.1 6.9 10.5 10.4 14.2 1.6 1.8 2.5 3.3 2 3.3s-2.8-2.4-4.9-5.3c-2.2-2.8-5.9-7.8-8.3-11-2.4-3.1-3.9-5.7-3.4-5.7s3.9 2.8 7.6 6.1c6.7 6.1 9.3 7.4 5.8 2.8-1.7-2.2-16.9-26.5-18.7-29.9-2.5-4.7 2.1 1.9 8 11.5zm64.2-9.3c-.3.8-.6.5-.6-.6-.1-1.1.2-1.7.5-1.3.3.3.4 1.2.1 1.9zm-6.7 5.1c0 3.1-.3 3.8-1 2.7-1.3-2-1.3-8.3 0-7.5.6.3 1 2.5 1 4.8zm18-2.2c0 1.7-.4 2.8-1 2.4-.6-.3-1.5.6-2 2.2-2.3 6.4-8.4 20.2-8.8 19.9-.2-.2 0-2.6.4-5.3.5-3.5.9-4.3 1.4-2.8.5 1.5 1.4.1 3.8-6.1 3.6-9.3 5.4-13.4 5.9-13.4.1 0 .3 1.4.3 3.1zm-43.3 1.6c-.3 1-.5.4-.5-1.2 0-1.7.2-2.4.5-1.8.2.7.2 2.1 0 3zm36 0c-.3 1-.5.4-.5-1.2 0-1.7.2-2.4.5-1.8.2.7.2 2.1 0 3zm34.7 1.5c-1.5 2.9-5.4 9.5-8.7 14.6-3.3 5.1-5.8 9.5-5.5 9.7.2.2 3.7-2.9 7.8-7s7.8-7.5 8.3-7.5c1.1 0-10.4 16.6-15.3 22-3.1 3.4-2.8 2.8 1.3-2.5 12.4-16.1 12.6-17.7 1-6.2-4.8 4.8-8.9 8.5-9.1 8.3-.1-.2 2.9-5.2 6.9-11.1 3.9-6 8.9-14.1 11.1-18.2 4.6-8.4 6.1-9.9 2.2-2.1zm-39.7-2c-.3.8-.6.5-.6-.6-.1-1.1.2-1.7.5-1.3.3.3.4 1.2.1 1.9zm-32.8 9.3c0 .5-.6-.1-1.3-1.4-1-1.8-1.5-2.1-1.8-1-.3.8-.4.7-.3-.3.2-.9-.1-1.8-.5-2-.5-.2-1.1-1.7-1.5-3.3-.5-2.5-.2-2.2 2.4 2 1.7 2.7 3.1 5.4 3 6zm-15.6-2.3l1.9 3.3-2.1-2.5c-2.6-3.1-2.7-2-.2 2.8 1 2 2.1 4.8 2.5 6.2.8 3-4-6.8-6-12.4-1.4-3.7-1.3-3.9.3-2.3 1 .8 2.6 3.1 3.6 4.9zm23.4-2c-.3.7-.5.2-.5-1.2s.2-1.9.5-1.3c.2.7.2 1.9 0 2.5zm23.7 1.2c-.3 2.1-.8 3.5-1.1 3.2-.2-.2-.1-2 .3-4 .3-2.1.8-3.5 1.1-3.2.2.2.1 2-.3 4zm-28.7.3c-.3 1-.5.4-.5-1.2 0-1.7.2-2.4.5-1.8.2.7.2 2.1 0 3zm12 0c-.3 1-.5.4-.5-1.2 0-1.7.2-2.4.5-1.8.2.7.2 2.1 0 3zm22-.5c-.3.7-.5.2-.5-1.2s.2-1.9.5-1.3c.2.7.2 1.9 0 2.5zm7-1c-.3.8-.6.5-.6-.6-.1-1.1.2-1.7.5-1.3.3.3.4 1.2.1 1.9zM145.5 69c-.4 2.8-.9 4.9-1.2 4.7-.2-.3-.1-2.8.3-5.6s.9-5 1.1-4.7c.3.3.2 2.8-.2 5.6zM42 69.6c4.9 3 8.9 6 8.7 6.6-.1.6.4 1.3 1.2 1.6.9.3 1.1 0 .6-.8-.4-.7.5-.5 2.4.4 1.7.9 3.1 1.9 3.1 2.2 0 .2-.9 0-2.1-.6-1.1-.7-2.3-1-2.5-.7-.6.5 24 18.5 33.6 24.6 3.6 2.2 6 4.1 5.4 4.1-1.7 0-13.6-4.2-13.1-4.6.2-.3 1.7 0 3.2.6 4.3 1.6 4 .6-.7-2.5C75.3 96.2 57.5 83.3 48 76c-4.7-3.7-10.2-7.7-12.2-8.9-3.5-2.1-4.6-3.1-3.3-3.1.3 0 4.6 2.5 9.5 5.6zm134.6-1c-.8 2.1-1.5 3.2-1.5 2.4-.1-.8-2.6 2.5-5.6 7.5-3 4.9-5.5 8.6-5.5 8.1 0-1.1 13.2-22.7 13.7-22.3.2.2-.3 2.1-1.1 4.3zm71.3-3.2c-.2.2-4.7 3.4-9.9 7.1-5.2 3.7-13.5 10-18.5 14-4.9 3.9-12.5 9.6-16.8 12.5-4.5 3.1-7.3 5.6-6.7 6 1 .6-6.2 4-8.4 4-.5 0 4.7-3.9 11.5-8.6 13.4-9.3 29.1-21.6 28.4-22.2-.5-.5-26.4 15.4-35.3 21.6-3.5 2.4-6.5 4.2-6.8 4-.2-.3 2.5-3.7 6.2-7.7 3.6-3.9 6.3-7.1 5.9-7.1-1.1 0-10.5 6.9-14.2 10.4-1.8 1.6-3.3 2.5-3.3 1.9 0-1.1 21.9-17.7 22.6-17 .2.2-2.6 3.5-6.1 7.4-3.6 3.9-6.5 7.4-6.5 7.6 0 .3 6.9-3.7 15.3-9 8.3-5.2 19.3-11.8 24.2-14.6 5-2.8 11-6.5 13.5-8.3 2.5-1.8 4.7-3.1 4.9-2.8.2.2.2.6 0 .8zm-117.1 7.1c0 1.6-.2 1.5-.8-.5-.4-1.4-.8-3.4-.8-4.5 0-1.6.2-1.5.8.5.4 1.4.8 3.4.8 4.5zM163 72c-.7 2.8-1.4 4.9-1.6 4.7-.3-.2.1-2.7.8-5.5.6-2.9 1.3-5 1.6-4.7.2.2-.1 2.7-.8 5.5zm-12.8 1c.3-1.4.3-.3.1 2.5-.8 8.4-2.3 7.6-2.1-1.1.1-6.7.2-7.2.8-3.4.5 3.7.7 4 1.2 2zm6.5-2.3c-.3 1-.5.4-.5-1.2 0-1.7.2-2.4.5-1.8.2.7.2 2.1 0 3zm-32 .5c-.3.7-.5.2-.5-1.2s.2-1.9.5-1.3c.2.7.2 1.9 0 2.5zm12 2c-.2 1.3-.4.5-.4-1.7-.1-2.2.1-3.2.4-2.3.2 1 .2 2.8 0 4zm-18-1c-.3.7-.5.2-.5-1.2s.2-1.9.5-1.3c.2.7.2 1.9 0 2.5zm-7 4.3c2.1 4.2.1 1.9-2.6-3-1.3-2.2-1.5-3.1-.6-2s2.3 3.3 3.2 5zm13.5-2c.2-1.2.8-.2 1.4 2.7.6 2.7.8 4.8.5 4.8-.7 0-6.1-10.5-6.1-11.8.1-.4.9.9 1.9 2.8 1.6 2.8 1.9 3.1 2.3 1.5zm-5.5 1.7c-.3.8-.6.5-.6-.6-.1-1.1.2-1.7.5-1.3.3.3.4 1.2.1 1.9zm24 5c-.2 1.3-.4.3-.4-2.2s.2-3.5.4-2.3c.2 1.3.2 3.3 0 4.5zm-6 0c-.2 1.3-.4.5-.4-1.7-.1-2.2.1-3.2.4-2.3.2 1 .2 2.8 0 4zm-14.9 4.3c0 .5-.6-.4-1.3-2-.8-1.7-1.4-3.7-1.4-4.5 0-.8.7.1 1.4 2s1.3 3.9 1.3 4.5zm37.2-3c-.7 2-1.4 3.5-1.6 3.3-.2-.2.2-2.1.8-4.1.6-2 1.3-3.5 1.6-3.3.2.3-.1 2.1-.8 4.1zm-81.2 8.8c5.1 3.3 9.5 5.8 9.7 5.5.2-.2-2.9-3.7-7-7.8S74 81.2 74 80.7c0-1.1 16.6 10.4 22 15.3 3.4 3.1 2.8 2.8-2.5-1.3-8.5-6.5-13.1-9.7-14-9.7-.4 0 3.2 3.9 7.9 8.7 4.7 4.8 8.4 8.8 8.2 9-.2.2-5.2-2.8-11.1-6.8-6-3.9-14.1-8.9-18.2-11.1-4-2.2-7.3-4.2-7.3-4.4 0-.9 10.8 5 19.8 10.9zm36.7-8.2c.9 1.7 1.5 3.3 1.3 3.5-.3.2-1.2-1.2-2.1-3.1-2.1-4.3-1.3-4.7.8-.4zm100 15c-1.2 1.9-20.5 13.7-20.5 12.6 0-.2 3.6-2.6 8.1-5.2 4.4-2.6 7.8-4.9 7.5-5.2-.2-.2-1.8.3-3.5 1.1-3 1.6-4.9 2.1-3.9 1 .5-.5 11.8-5.3 12.6-5.4.2 0 0 .5-.3 1.1zM72 99.5c1.9.7 2.8 1.4 2 1.4-.8.1 2.5 2.6 7.5 5.6 4.9 3 8.6 5.5 8.1 5.5-.9 0-20.2-11.6-22-13.2-1.4-1.1.2-.9 4.4.7zm85.1 2.2c25 11.7 31.4 40.7 13.2 60.3-16.3 17.6-44.2 18.2-61.1 1.3-7.2-7.1-10.5-14.6-11-24.4-.3-5.1.1-9.5 1.2-13.1 3.2-11.1 13.7-21.7 25.8-26 4.1-1.4 7.5-1.8 15.3-1.5 8.8.2 10.8.6 16.6 3.4zM201 104c-.8.5-1.9 1-2.5 1-.5 0-.3-.5.5-1s2-1 2.5-1c.6 0 .3.5-.5 1zm-171.5 9.1c5.5.9 8.9 1.8 7.5 1.9-2.3.1-2.4.2-.5 1.1 2.3 1.1 3.1 1.2-13.4-2.6-5.7-1.3-10.6-2.6-10.8-2.9-.6-.6 2.8-.1 17.2 2.5zm33.5-2.2c0 .4 1.2.7 2.8.5 2.4-.3 2.4-.3.4.4-2 .6-1.7.9 2.8 2.5 2.9 1 5 2 4.8 2.3-.5.4-11.3-3.7-14.4-5.4-1.7-1-1.6-1.1.9-1.2 1.5 0 2.7.4 2.7.9zm203 1c-3.6 2.1-19.6 4.9-23.5 4.2-3.7-.7-3.4-.8 4-1.5 4.4-.4 10.5-1.3 13.5-2.1 6.5-1.6 8-1.7 6-.6zm-189.5 1.6c5.4 1.7 3.3 1.8-3 .1-2.7-.8-4.1-1.4-3-1.4 1.1 0 3.8.5 6 1.3zm139.2.1c-1.6.8-5.2 1.7-8 1.9l-5.2.3 6-1.8c7.8-2.3 11.1-2.5 7.2-.4zm-168.4 2.1c-1.3.2-3.3.2-4.5 0-1.3-.2-.3-.4 2.2-.4s3.5.2 2.3.4zm39.2.8c3.9 1.7 2.1 1.8-2.5 0-1.9-.7-2.8-1.4-2-1.4.8 0 2.9.6 4.5 1.4zm-29.7.2c-1 .2-2.8.2-4 0-1.3-.2-.5-.4 1.7-.4 2.2-.1 3.2.1 2.3.4zm143.2.3c-3.4 1.1-6 1.1-3.5 0 1.1-.5 2.9-.8 4-.8 1.6 0 1.5.2-.5.8zm37.3-.3c-.7.2-2.1.2-3 0-1-.3-.4-.5 1.2-.5 1.7 0 2.4.2 1.8.5zm-195.6.9c-.3.3-1.2.4-1.9.1-.8-.3-.5-.6.6-.6 1.1-.1 1.7.2 1.3.5zm21.6.1c-.7.2-2.1.2-3 0-1-.3-.4-.5 1.2-.5 1.7 0 2.4.2 1.8.5zm17.8 1.7c3.9 1.8 4.7 2.5 2.9 2.4-3.6-.1-9-1.5-6.5-1.7 1.8-.2 1.8-.3-.5-1.6-3.9-2.2-1.8-1.7 4.1.9zm150.2-1.7c-.7.2-2.1.2-3 0-1-.3-.4-.5 1.2-.5 1.7 0 2.4.2 1.8.5zm12.4-.1c-.3.3-1.2.4-1.9.1-.8-.3-.5-.6.6-.6 1.1-.1 1.7.2 1.3.5zm-198 1c-.3.3-1.2.4-1.9.1-.8-.3-.5-.6.6-.6 1.1-.1 1.7.2 1.3.5zm22.6.1c-.7.2-1.9.2-2.5 0-.7-.3-.2-.5 1.2-.5s1.9.2 1.3.5zm124.7.3c-.8.5-1.9 1-2.5 1-.5 0-.3-.5.5-1s2-1 2.5-1c.6 0 .3.5-.5 1zm10 1c-2.7 1.5-3.1 1.9-1.5 2.1 1.7.1 1.6.2-.5.9-1.4.4-3.6.8-5 .9-1.9 0-1.3-.7 3-2.9 3-1.6 6-2.9 6.5-2.9.6 0-.6.8-2.5 1.9zm22.3-1.3c-.7.2-2.1.2-3 0-1-.3-.4-.5 1.2-.5 1.7 0 2.4.2 1.8.5zm11.7.8c-1.9.7-4.2 1.3-5 1.3-.8 0 .1-.6 2-1.3 1.9-.7 4.2-1.3 5-1.3.8 0-.1.6-2 1.3zM53 120c2 .6 2.1.8.5.8-1.1 0-3.1-.4-4.5-.8-2-.6-2.1-.8-.5-.8 1.1 0 3.1.4 4.5.8zm21.3-.3c-.7.2-2.1.2-3 0-1-.3-.4-.5 1.2-.5 1.7 0 2.4.2 1.8.5zm144.5 0c-1 .2-2.6.2-3.5 0-1-.3-.2-.5 1.7-.5s2.7.2 1.8.5zm-8.3 1.3c-1.6.4-3.9.8-5 .8-1.6 0-1.5-.2.5-.8 1.4-.4 3.6-.8 5-.8 2.2 0 2.2.1-.5.8zm-151.8.6c-.3.3-1.2.4-1.9.1-.8-.3-.5-.6.6-.6 1.1-.1 1.7.2 1.3.5zm169.8.4c-1.1.5-2.7.9-3.5.9-.9 0-.8-.4.5-.9 1.1-.5 2.7-.9 3.5-.9.9 0 .8.4-.5.9zm-165.8.6c-.3.3-1.2.4-1.9.1-.8-.3-.5-.6.6-.6 1.1-.1 1.7.2 1.3.5zm4 1c-.3.3-1.2.4-1.9.1-.8-.3-.5-.6.6-.6 1.1-.1 1.7.2 1.3.5zm156 0c-.3.3-1.2.4-1.9.1-.8-.3-.5-.6.6-.6 1.1-.1 1.7.2 1.3.5zm-151.4 1.1c-.7.2-1.9.2-2.5 0-.7-.3-.2-.5 1.2-.5s1.9.2 1.3.5zm145.7.3c-1.4.4-3.4.8-4.5.8-1.6 0-1.5-.2.5-.8 1.4-.4 3.4-.8 4.5-.8 1.6 0 1.5.2-.5.8zm-132.6 2.1c.6.5-1.4.9-5 .8-4.3-.1-5.2-.3-3.4-.9l2.5-.7-2.5-.5c-1.4-.3-.2-.3 2.5-.1 2.8.3 5.4.9 5.9 1.4zm124.9-.4c-.7.2-1.9.2-2.5 0-.7-.3-.2-.5 1.2-.5s1.9.2 1.3.5zM203 128c-1.6.5 2.4.8 10.5.9 7.2.1 12.3.5 11.5.9-.8.5-8.2.6-16.5.2-10.4-.4-14.1-.8-12-1.4 1.7-.4 3.5-.9 4-1.1.6-.2 1.9-.3 3-.3 1.6 0 1.5.2-.5.8zm-136 1c-3.8 1.2-9.9 1.2-8 0 .8-.5 3.5-.9 6-.9 3.7.1 4.1.2 2 .9zm3.3 1.7c-.7.2-2.1.2-3 0-1-.3-.4-.5 1.2-.5 1.7 0 2.4.2 1.8.5zm6 1c-.7.2-2.1.2-3 0-1-.3-.4-.5 1.2-.5 1.7 0 2.4.2 1.8.5zm140.2.3c-1.6.4-4.1.8-5.5.8-2.2 0-2.2-.1.5-.8 1.7-.4 4.1-.8 5.5-.8 2.2 0 2.2.1-.5.8zm-132.2.7c-1.3.2-3.3.2-4.5 0-1.3-.2-.3-.4 2.2-.4s3.5.2 2.3.4zm122 1c-1.3.2-3.3.2-4.5 0-1.3-.2-.3-.4 2.2-.4s3.5.2 2.3.4zm-9 1c-.7.2-2.1.2-3 0-1-.3-.4-.5 1.2-.5 1.7 0 2.4.2 1.8.5zm-112.5 4c-1 .2-2.6.2-3.5 0-1-.3-.2-.5 1.7-.5s2.7.2 1.8.5zm-8 1c-1 .2-2.8.2-4 0-1.3-.2-.5-.4 1.7-.4 2.2-.1 3.2.1 2.3.4zm-9.3 1.3c-1.6.4-4.1.8-5.5.8-2.2 0-2.2-.1.5-.8 1.7-.4 4.1-.8 5.5-.8 2.2 0 2.2.1-.5.8zm131.8-.3c-1.3.2-3.3.2-4.5 0-1.3-.2-.3-.4 2.2-.4s3.5.2 2.3.4zm7 1c-.7.2-2.1.2-3 0-1-.3-.4-.5 1.2-.5 1.7 0 2.4.2 1.8.5zM73.4 143c11.9.1 14.1 1.1 4.6 2.4-3.2.4-3.8.3-2-.3 1.7-.6-1.8-.9-10.5-1-9.1-.1-12.6-.4-11.5-1.1.8-.6 2.8-.8 4.4-.5 1.6.3 8.3.5 15 .5zm138.9-.3c-.7.2-2.1.2-3 0-1-.3-.4-.5 1.2-.5 1.7 0 2.4.2 1.8.5zm7.7 1.3c-.8.5-3.5.9-6 .9-3.7-.1-4.1-.2-2-.9 3.8-1.2 9.9-1.2 8 0zm-17.5 2c-2.8 1.2-7.3 1.2-8 0-.4-.6 1.4-1 4.7-.9 3.9 0 4.8.3 3.3.9zm-130.2.7c-.7.2-1.9.2-2.5 0-.7-.3-.2-.5 1.2-.5s1.9.2 1.3.5zM66 148c-1.4.4-3.4.8-4.5.8-1.6 0-1.5-.2.5-.8 1.4-.4 3.4-.8 4.5-.8 1.6 0 1.5.2-.5.8zm139.3-.3c-.7.2-1.9.2-2.5 0-.7-.3-.2-.5 1.2-.5s1.9.2 1.3.5zm5 1c-.7.2-1.9.2-2.5 0-.7-.3-.2-.5 1.2-.5s1.9.2 1.3.5zm-151.6.9c-.3.3-1.2.4-1.9.1-.8-.3-.5-.6.6-.6 1.1-.1 1.7.2 1.3.5zm20.3 2.9c-3.6 1.9-6.9 3.4-7.5 3.4-.5 0 1-1.1 3.5-2.4 3.3-1.7 3.9-2.5 2.5-2.6-1.4-.1-1.1-.4 1-.9 6.5-1.7 6.7-.7.5 2.5zm142.5-1.6c3.9 1.1 6.3 1.9 5.5 2-.8 0-4.6-.8-8.5-1.8-3.8-1.1-6.3-1.9-5.5-2 .8 0 4.7.8 8.5 1.8zm-168 .1c-1.1.5-2.7.9-3.5.9-.9 0-.8-.4.5-.9 1.1-.5 2.7-.9 3.5-.9.9 0 .8.4-.5.9zm19.5 1c-1.4.4-3.6.8-5 .8-2.2 0-2.2-.1.5-.8 1.7-.4 3.9-.8 5-.8 1.6 0 1.5.2-.5.8zm128.5 0c2.8.7 2.8.8.5.9-2 .1-2.2.3-1 1.1 2.5 1.6.5 1.1-4.1-1-4.1-1.8-4.2-2-1.4-1.9 1.7.1 4.4.5 6 .9zM45 153.5c-1.9.7-4.2 1.3-5 1.3-.8 0 .1-.6 2-1.3 1.9-.7 4.2-1.3 5-1.3.8 0-.1.6-2 1.3zm18.8.2c-1 .2-2.6.2-3.5 0-1-.3-.2-.5 1.7-.5s2.7.2 1.8.5zm24.2.3c-.8.5-1.9 1-2.5 1-.5 0-.3-.5.5-1s2-1 2.5-1c.6 0 .3.5-.5 1zm120.3-.3c-.7.2-1.9.2-2.5 0-.7-.3-.2-.5 1.2-.5s1.9.2 1.3.5zm29.5 1c3.6.9 6.2 1.8 5.7 2-.6.1-4.1-.6-8-1.6-3.8-1.1-6.4-2-5.7-2 .7-.1 4.3.7 8 1.6zm-180.5 0c-.7.2-2.1.2-3 0-1-.3-.4-.5 1.2-.5 1.7 0 2.4.2 1.8.5zm160.2.2c3.4.7 3.5.9 1 .9-1.6 0-4.3-.4-6-.8-4.2-1.1-.1-1.1 5-.1zm-179.8.7c-.3.3-1.2.4-1.9.1-.8-.3-.5-.6.6-.6 1.1-.1 1.7.2 1.3.5zm13.6.1c-.7.2-2.1.2-3 0-1-.3-.4-.5 1.2-.5 1.7 0 2.4.2 1.8.5zm31.2.3c-1.1.5-2.9.8-4 .8-1.6 0-1.5-.2.5-.8 3.4-1.1 6-1.1 3.5 0zm124.5.5c1.4.8 2.1 1.4 1.5 1.4-.5 0-2.1-.6-3.5-1.4-1.4-.8-2-1.4-1.5-1.4.6 0 2.1.6 3.5 1.4zm-167.2 1c.1.1-3.2.5-7.5.9-4.2.4-10.4 1.4-13.7 2.1-6.7 1.6-9 1.2-3-.4 11.1-3 16.3-3.9 19.9-3.4 2.2.3 4.1.7 4.3.8zm5.5-.8c-.7.2-2.1.2-3 0-1-.3-.4-.5 1.2-.5 1.7 0 2.4.2 1.8.5zm182.5 0c-1 .2-2.8.2-4 0-1.3-.2-.5-.4 1.7-.4 2.2-.1 3.2.1 2.3.4zm-158.2 2.4c-3.8 1.1-7.1 1.8-7.3 1.5-1.1-1 5-3.1 9.4-3.3l4.8-.1-6.9 1.9zm130.9-1.1c1.3.5 1.4.9.5.9-.8 0-2.4-.4-3.5-.9-1.3-.5-1.4-.9-.5-.9.8 0 2.4.4 3.5.9zm36.8-.3c-1.3.2-3.5.2-5 0-1.6-.2-.5-.4 2.2-.4 2.8 0 4 .2 2.8.4zm19.7 2c4.1.8 8.2 2 9 2.5 1.2.7 1.1.8-.5.4-1.1-.2-7.4-1.2-13.9-2.3-8.9-1.3-11.2-2-9-2.5 1.6-.3 3.8-.4 4.9-.2 1.1.3 5.4 1.2 9.5 2.1zm-174 3.8c-8.2 4.4-15.5 9.4-11.7 8.1 4.9-1.7 4.7-1.4-1.1 1.5-3.5 1.7-6.5 2.9-6.8 2.6-1.2-1.1 24.1-16.7 27.1-16.6.6 0-2.8 2-7.5 4.4zm122.7-3.9c-.3.3-1.2.4-1.9.1-.8-.3-.5-.6.6-.6 1.1-.1 1.7.2 1.3.5zm12.4 1.4l4.4 2h-3.3c-2 0-3.1-.4-2.7-1 .4-.7-.2-.9-1.7-.5-1.2.3-3.6.1-5.3-.5-2.6-.8-2.4-.9 1.5-.4 3.3.4 4.1.2 3-.5-2.3-1.7-.6-1.3 4.1.9zm-18.6 5.5c10.7 6.4 14.6 9.1 11.5 8.1-.8-.2-4.6-1.4-8.3-2.6-3.8-1.2-6.6-2.4-6.4-2.6.2-.2 1.8.1 3.6.7s3.4.9 3.7.6c.4-.4-8.1-5.8-15.1-9.6-1.1-.6-1.5-1.1-1-1.1.6 0 6 2.9 12 6.5zm-119.6 6.1c-13 9.1-29 21.6-28.4 22.3.5.5 23.9-13.8 33.8-20.6 4.3-3 8.1-5.3 8.3-5 .2.2-2.3 3.3-5.6 6.9-3.3 3.7-6 6.9-6 7.3 0 .6 6-3.4 13.8-9.3 1.7-1.3 3.2-2.2 3.2-1.9 0 .4-6.2 5.2-20.2 15.5-3.7 2.7-1.6-.6 4.8-7.6 3.6-4 6.3-7.2 5.9-7.2-.3 0-3.2 1.7-6.3 3.8-5.7 3.8-24.6 15.4-37.7 23-3.8 2.3-8.5 5.1-10.2 6.3-1.8 1.1-3.3 1.9-3.3 1.6 0-.3 4.6-3.9 10.3-8 5.6-4 13.9-10.3 18.4-13.9 4.5-3.7 11.6-9 15.8-11.8 7.7-5.2 9.1-6.9 4-5-1.5.6-3 .9-3.2.6-.8-.8 5.8-2.5 7.5-1.9.9.3 1.3.2.9-.2-.8-1 2.9-3.4 5.2-3.5.8 0-4.1 3.9-11 8.6zm111.9-4.5c.2.4 1.1.5 2 .2 1.3-.4 1.4-.3.3.5-1.1.8-.9 1.2.9 2.2 3.4 1.8 26.4 18.4 34.1 24.5 3.6 2.9 9.1 6.9 12.2 8.9 3.1 2 5.7 3.9 5.7 4.2 0 .7-3.1-1.1-12.4-6.9-4.4-2.7-12.5-7.4-18-10.4-5.6-3-13.8-7.9-18.4-10.9-4.5-3-8.6-5.4-9-5.4-.3 0 3.1 3.8 7.8 8.5 4.7 4.7 8 8.5 7.4 8.5-1.4 0-16.9-11-21.9-15.5-4.4-4.1-2.6-2.9 8.8 5.7 4.2 3.2 7.9 5.8 8.4 5.8.4 0-3.3-4.1-8.2-9-4.9-5-8.7-9-8.3-9 .4 0 5.8 3.4 12.1 7.5 12 7.8 31.7 18.9 32.3 18.2.5-.4-27.3-20.5-35.3-25.5-2.9-1.9-5.3-3.6-5.3-3.8 0-.8 4.5.8 4.8 1.7zm-90.5 10.2C94.5 187 88 196 88 196.7c0 .4 4.1-3.3 9-8.2 5-4.9 9-8.7 9-8.3 0 .4-3.4 5.8-7.5 12.1-7.8 12-18.9 31.7-18.2 32.3.4.5 20.5-27.3 25.6-35.4 1.8-2.9 3.5-5.1 3.8-4.9.2.3-.8 4-2.2 8.2-1.5 4.2-2.5 7.9-2.2 8.1.4.4 5.8-8.3 9.6-15.1.6-1.1 1.1-1.5 1.1-1 0 .6-2.9 5.9-6.5 11.9-3.5 6-6.6 11.4-6.8 12-.2.6-.7.9-1 .6-.3-.3.7-4.5 2.4-9.4 2.9-8.7 3.3-12.1.8-7.4-1.7 3.2-18 25.8-24.4 33.9-2.9 3.6-6.9 9.1-8.9 12.2-2 3.1-3.9 5.7-4.2 5.7-.7 0 .9-2.9 8.1-14.5C79 224 83 217 84.5 214s5.9-10.4 9.6-16.3c3.8-6 6.9-11.2 6.9-11.5 0-.4-3.8 3.1-8.5 7.8-4.7 4.7-8.5 8-8.5 7.4 0-1.3 8.9-14.2 14.3-20.7 4.1-4.8 6.4-6.6 3-2.4zm81.2 7.5c3 4.2 6.4 8.9 7.6 10.4 3.5 4.7.7 3.1-6.9-3.8-4-3.6-7.2-6.3-7.2-5.9 0 .3 1.3 2.5 2.9 4.8 4 5.9 18.1 29 22.1 36.2 1.9 3.3 5.1 8.7 7.3 11.9 6 8.9 2.7 5.8-4.4-4.2-3.4-4.8-9.5-12.8-13.5-17.8-4-4.9-10-13-13.3-17.9-6.1-8.8-7.5-9.7-4.6-2.8.8 2 1.4 3.8 1.2 4-.3.2-1.9-3.3-3.7-7.7-1.7-4.5-3-8.3-2.7-8.6.2-.2 3.3 3.9 6.8 9.3 5.5 8.4 20 27.7 23.2 30.8 3.4 3.4-11.2-21.3-21-35.4-2.4-3.5-4.2-6.5-4-6.7.2-.2 3.3 2.3 6.9 5.6 3.7 3.3 6.9 6 7.3 6 .6 0-3.2-5.6-9.4-13.9-1.4-1.9-2-3.1-1.3-2.7.7.4 3.7 4.2 6.7 8.4zm-9.2 18.4l1.8 2.3-.6-2.5c-.2-1.4.7-.1 2.1 2.8 1.4 2.9 2.3 5.6 2 5.9-.6.6-10.4-14.2-14-21.4-4.3-8.6-2.9-7.4 2.2 1.9 2.6 4.7 5.5 9.7 6.5 11zM158.9 193c0 1-.3.8-.9-.5-1.2-2.7-1.2-4.3 0-2.5.5.8.9 2.2.9 3zm-40 1.9c-.7 2.3-1.4 3.9-1.6 3.7-.3-.2.1-2.3.8-4.5.7-2.3 1.4-3.9 1.6-3.7.3.2-.1 2.3-.8 4.5zm5.7.8c-.9 4.9-1.1 5.3-1.7 3-.7-2.6.8-8.7 2.1-8.7.4 0 .2 2.6-.4 5.7zm11.1 1c-.2 1.6-.4.5-.4-2.2 0-2.8.2-4 .4-2.8.2 1.3.2 3.5 0 5zm6-3.5c-.3.7-.5.2-.5-1.2s.2-1.9.5-1.3c.2.7.2 1.9 0 2.5zm-11 4c-.3 2-.4 2.1-1.1.5-.5-.9-.5-2.9 0-4.5.7-2.5.8-2.6 1.1-.5.3 1.3.3 3.3 0 4.5zm17.8.5c1.8 7.3 1.8 10.4 0 4.3-1.3-4.3-1.3-4-1.5 8.5-.2 12.3-.3 12.8-1.5 9-.8-2.2-1.3-5.1-1.3-6.5 0-2.3.1-2.2.8.5.5 1.9.8-1.8.9-9.9 0-7.1.4-12.7.7-12.4.3.3 1.2 3.2 1.9 6.5zm12.7 8.3c.3-.8.3-.4.1.8-.2 1.3 0 2.1.5 1.8.5-.3 1.4 1 2 2.9 1.7 5.7-.5 3-5.3-6.3-2.4-4.8-4.5-8-4.5-7.2-.2 1.9-1.8-2.8-1.9-5.5 0-1.1 1.9 1.8 4.3 6.5 2.5 4.9 4.6 7.9 4.8 7zm-.4-4.5c0 1.6-.2 1.5-.8-.5-.4-1.4-.8-3.4-.8-4.5 0-1.6.2-1.5.8.5.4 1.4.8 3.4.8 4.5zm-18.1.7c-.2 1.3-.4.3-.4-2.2s.2-3.5.4-2.3c.2 1.3.2 3.3 0 4.5zm-22.6.5c-1.1 2.1-2 3.5-2.1 3.1 0-1.2 3.3-7.8 3.8-7.4.2.2-.6 2.1-1.7 4.3zm6.8 8.4c-1.2 5.4-2.4 9.7-2.6 9.5-.2-.2.6-5.1 1.9-11 1.3-5.8 2.5-10.1 2.6-9.5.2.5-.6 5.5-1.9 11zm-10.2-8.9c-.3.8-.6.5-.6-.6-.1-1.1.2-1.7.5-1.3.3.3.4 1.2.1 1.9zm18 1.5c-.3 1-.5.4-.5-1.2 0-1.7.2-2.4.5-1.8.2.7.2 2.1 0 3zm20-.5c-.3.7-.5.2-.5-1.2s.2-1.9.5-1.3c.2.7.2 1.9 0 2.5zm-32.2 4.3c-.4 2.5-.9 4.4-1.2 4.1-.2-.2-.1-2.5.2-5.1.4-2.5.9-4.4 1.2-4.1.2.2.1 2.5-.2 5.1zm-7 .7c-.4 3.1-.3 3.9.4 2.8 1.7-2.3 1.3-.6-.9 4.1-2.3 5.1-2.6 3.2-.9-5.4 1.4-6.6 2.4-7.7 1.4-1.5zm17.4.4c0-1.6.3-2.7.6-2.4.3.3.2 3.1-.1 6.2-.9 7.1-2.4 5.4-2.3-2.4.2-5 .2-5.2.9-2 .7 3.4.7 3.4.9.6zm10.8.1c-.3 1-.5.4-.5-1.2 0-1.7.2-2.4.5-1.8.2.7.2 2.1 0 3zm12 0c-.3 1-.5.4-.5-1.2 0-1.7.2-2.4.5-1.8.2.7.2 2.1 0 3zm-5 1.5c-.3.7-.5.2-.5-1.2s.2-1.9.5-1.3c.2.7.2 1.9 0 2.5zm6 4.5c-.3 1-.5.4-.5-1.2 0-1.7.2-2.4.5-1.8.2.7.2 2.1 0 3zm-1.1 15c-.5.5-4.6-14.8-4.5-16.8 0-.8 1.1 2.6 2.5 7.5 1.3 4.9 2.3 9.1 2 9.3zm-34.9-13c-.3 1-.5.4-.5-1.2 0-1.7.2-2.4.5-1.8.2.7.2 2.1 0 3zm37 4c-.3 1-.5.4-.5-1.2 0-1.7.2-2.4.5-1.8.2.7.2 2.1 0 3zm-38 3.5c-.2 1.3-.4.5-.4-1.7-.1-2.2.1-3.2.4-2.3.2 1 .2 2.8 0 4zm4 0c-.3.8-.6.5-.6-.6-.1-1.1.2-1.7.5-1.3.3.3.4 1.2.1 1.9zm35 2.5c-.3 1-.5.4-.5-1.2 0-1.7.2-2.4.5-1.8.2.7.2 2.1 0 3zm-36.3 3.7c-.3 2.1-.8 3.5-1.1 3.2-.2-.2-.1-2 .3-4 .3-2.1.8-3.5 1.1-3.2.2.2.1 2-.3 4zm-3.7 3.8c-.2 1.3-.4.3-.4-2.2s.2-3.5.4-2.3c.2 1.3.2 3.3 0 4.5zm41-.5c-.3 1-.5.2-.5-1.7s.2-2.7.5-1.8c.2 1 .2 2.6 0 3.5zm-1.8 2.3c0 .9-.4.8-.9-.5-.5-1.1-.9-2.7-.9-3.5 0-.9.4-.8.9.5.5 1.1.9 2.7.9 3.5zm-37.5 2.4c-.3 1.5-.8 2.5-1.1 2.3-.2-.3-.1-1.7.3-3.1.3-1.5.8-2.5 1.1-2.3.2.3.1 1.7-.3 3.1zM164 259c.6 2.3.9 4.4.6 4.7-.5.6-1.5-3-4.6-16-2.1-9.3-2.4-11.4-1-8.2.7 1.7.9 1.6 1-1 .2-1.7.8 1.4 1.6 6.7.7 5.3 1.8 11.5 2.4 13.8zm-46.5-10.5c-.8 2.7-1.7 7.1-2.1 9.8-.3 2.6-1 4.9-1.4 5.2-.4.2-.1-3.3.6-7.8.8-4.5 1.7-10.5 2-13.2.7-4.7.8-4.8 1.5-2 .5 1.8.3 4.8-.6 8z"/><path d="M175 206.9c0 .6.4 1.3 1 1.6.6.3.7-.1.4-.9-.7-1.8-1.4-2.1-1.4-.7z"/></svg>